<?xml version="1.0" encoding="UTF-8" standalone="no"?>
<!-- Created with Inkscape (http://www.inkscape.org/) -->

<svg
   width="57.684647mm"
   height="57.51416mm"
   viewBox="0 0 57.684646 57.51416"
   version="1.1"
   id="svg5"
   xml:space="preserve"
   inkscape:version="1.2.1 (9c6d41e410, 2022-07-14)"
   sodipodi:docname="social-link.svg"
   inkscape:export-filename="social-link-128.png"
   inkscape:export-xdpi="56.361618"
   inkscape:export-ydpi="56.361618"
   xmlns:inkscape="http://www.inkscape.org/namespaces/inkscape"
   xmlns:sodipodi="http://sodipodi.sourceforge.net/DTD/sodipodi-0.dtd"
   xmlns:xlink="http://www.w3.org/1999/xlink"
   xmlns="http://www.w3.org/2000/svg"
   xmlns:svg="http://www.w3.org/2000/svg"><sodipodi:namedview
     id="namedview7"
     pagecolor="#ffffff"
     bordercolor="#000000"
     borderopacity="0.25"
     inkscape:showpageshadow="2"
     inkscape:pageopacity="0.0"
     inkscape:pagecheckerboard="0"
     inkscape:deskcolor="#d1d1d1"
     inkscape:document-units="mm"
     showgrid="false"
     inkscape:zoom="3.0217733"
     inkscape:cx="115.4951"
     inkscape:cy="103.58156"
     inkscape:window-width="1920"
     inkscape:window-height="1046"
     inkscape:window-x="-11"
     inkscape:window-y="-11"
     inkscape:window-maximized="1"
     inkscape:current-layer="layer1-9" /><defs
     id="defs2"><inkscape:path-effect
       down_right_point="-997.893,-574.67"
       down_left_point="-1184.582,-574.67"
       up_right_point="-997.893,-765.171"
       up_left_point="-1184.582,-765.171"
       effect="perspective-envelope"
       id="path-effect646"
       is_visible="true"
       lpeversion="1"
       deform_type="perspective"
       horizontal_mirror="false"
       vertical_mirror="false"
       overflow_perspective="false" /><style
       id="style296">.cls-1{fill:#5865f2;}</style><linearGradient
       id="b"><stop
         offset="0"
         stop-color="#3771c8"
         id="stop600" /><stop
         stop-color="#3771c8"
         offset=".128"
         id="stop602" /><stop
         offset="1"
         stop-color="#60f"
         stop-opacity="0"
         id="stop604" /></linearGradient><linearGradient
       id="a"><stop
         offset="0"
         stop-color="#fd5"
         id="stop607" /><stop
         offset=".1"
         stop-color="#fd5"
         id="stop609" /><stop
         offset=".5"
         stop-color="#ff543e"
         id="stop611" /><stop
         offset="1"
         stop-color="#c837ab"
         id="stop613" /></linearGradient><radialGradient
       id="c"
       cx="158.429"
       cy="578.08801"
       r="65"
       xlink:href="#a"
       gradientUnits="userSpaceOnUse"
       gradientTransform="matrix(0,-1.98198,1.8439,0,-1031.402,454.004)"
       fx="158.429"
       fy="578.08801" /><radialGradient
       id="d"
       cx="147.694"
       cy="473.45499"
       r="65"
       xlink:href="#b"
       gradientUnits="userSpaceOnUse"
       gradientTransform="matrix(0.17394,0.86872,-3.5818,0.71718,1648.348,-458.493)"
       fx="147.694"
       fy="473.45499" /><linearGradient
       id="linearGradient4146"
       y2="331.651"
       gradientUnits="userSpaceOnUse"
       x2="936.91583"
       y1="72.46302"
       x1="116.06703"
       inkscape:collect="always"
       gradientTransform="matrix(0.15208954,0.22189639,-0.4042558,0.08348209,435.37887,199.69358)"><stop
         id="stop4142"
         style="stop-color:#0a5757;stop-opacity:1;"
         offset="0" /><stop
         id="stop4144"
         style="stop-color:#101100;stop-opacity:1;"
         offset="1" /></linearGradient></defs><g
     inkscape:label="Layer 1"
     inkscape:groupmode="layer"
     id="layer1"
     transform="translate(0.0049782,-0.81898504)"><path
       style="fill:#2aa9e0;stroke-width:0.191169"
       inkscape:connector-curvature="0"
       id="path5"
       d="m 57.679667,5.3616056 c -1.066212,0.777467 -2.25734,1.4042928 -3.552904,1.8502224 1.181839,-1.106641 1.946495,-2.6201658 2.105991,-4.261543 -1.10795,1.0278095 -2.397002,1.878516 -3.83118,2.4965786 -1.475036,-1.0191595 -3.356152,-1.4487513 -5.247356,-1.0406518 -3.631131,0.7835555 -5.940053,4.3627161 -5.156495,7.9938542 0.111205,0.515345 0.277706,1.00467 0.493685,1.46169 -5.523818,0.905026 -10.93352,-0.66727 -15.03496,-3.9455226 -0.356436,1.0932126 -0.437059,2.2925986 -0.177026,3.4976396 0.492264,2.281234 2.087346,4.043251 4.106063,4.841617 -1.085159,0.198461 -2.162861,0.121415 -3.155591,-0.179722 0.0052,0.02755 0.01115,0.0551 0.01714,0.08284 0.687427,3.185657 3.527343,5.353906 6.66572,5.309267 -0.519291,0.269365 -1.082847,0.474993 -1.682485,0.604388 -0.423685,0.09143 -0.844428,0.138975 -1.262533,0.149009 1.400467,2.431572 4.238857,3.808577 7.127609,3.24056 -1.869733,2.249233 -4.477938,3.912209 -7.558636,4.576987 -0.530727,0.114525 -1.060819,0.196238 -1.588322,0.246476 3.312482,1.23781 7.003521,1.580555 10.716707,0.779293 12.094109,-2.609767 16.5459,-14.055891 14.670897,-22.744975 -0.06152,-0.285079 -0.12904,-0.5671773 -0.20265,-0.8466237 1.084511,-1.2040368 1.949303,-2.6024919 2.546258,-4.1113612 z" /><g
       id="g644"
       transform="matrix(0.22325209,-0.05200292,0.05200292,0.22325209,1.9839258,30.524249)"><path
         fill="url(#c)"
         d="M 65.03,0 C 37.888,0 29.95,0.028 28.407,0.156 22.837,0.619 19.371,1.496 15.595,3.376 12.685,4.821 10.39,6.496 8.125,8.844 4,13.126 1.5,18.394 0.595,24.656 c -0.44,3.04 -0.568,3.66 -0.594,19.188 -0.01,5.176 0,11.988 0,21.125 0,27.12 0.03,35.05 0.16,36.59 0.45,5.42 1.3,8.83 3.1,12.56 3.44,7.14 10.01,12.5 17.75,14.5 2.68,0.69 5.64,1.07 9.44,1.25 1.61,0.07 18.02,0.12 34.44,0.12 16.42,0 32.84,-0.02 34.41,-0.1 4.4,-0.207 6.955,-0.55 9.78,-1.28 7.79,-2.01 14.24,-7.29 17.75,-14.53 1.765,-3.64 2.66,-7.18 3.065,-12.317 0.088,-1.12 0.125,-18.977 0.125,-36.81 0,-17.836 -0.04,-35.66 -0.128,-36.78 -0.41,-5.22 -1.305,-8.73 -3.127,-12.44 -1.495,-3.037 -3.155,-5.305 -5.565,-7.624 C 116.9,4 111.64,1.5 105.372,0.596 102.335,0.157 101.73,0.027 86.19,0 Z"
         transform="translate(1.004,1)"
         id="path620"
         style="fill:url(#c)" /><path
         fill="url(#d)"
         d="M 65.03,0 C 37.888,0 29.95,0.028 28.407,0.156 22.837,0.619 19.371,1.496 15.595,3.376 12.685,4.821 10.39,6.496 8.125,8.844 4,13.126 1.5,18.394 0.595,24.656 c -0.44,3.04 -0.568,3.66 -0.594,19.188 -0.01,5.176 0,11.988 0,21.125 0,27.12 0.03,35.05 0.16,36.59 0.45,5.42 1.3,8.83 3.1,12.56 3.44,7.14 10.01,12.5 17.75,14.5 2.68,0.69 5.64,1.07 9.44,1.25 1.61,0.07 18.02,0.12 34.44,0.12 16.42,0 32.84,-0.02 34.41,-0.1 4.4,-0.207 6.955,-0.55 9.78,-1.28 7.79,-2.01 14.24,-7.29 17.75,-14.53 1.765,-3.64 2.66,-7.18 3.065,-12.317 0.088,-1.12 0.125,-18.977 0.125,-36.81 0,-17.836 -0.04,-35.66 -0.128,-36.78 -0.41,-5.22 -1.305,-8.73 -3.127,-12.44 -1.495,-3.037 -3.155,-5.305 -5.565,-7.624 C 116.9,4 111.64,1.5 105.372,0.596 102.335,0.157 101.73,0.027 86.19,0 Z"
         transform="translate(1.004,1)"
         id="path622"
         style="fill:url(#d)" /><path
         fill="#ffffff"
         d="m 66.004,18 c -13.036,0 -14.672,0.057 -19.792,0.29 -5.11,0.234 -8.598,1.043 -11.65,2.23 -3.157,1.226 -5.835,2.866 -8.503,5.535 -2.67,2.668 -4.31,5.346 -5.54,8.502 -1.19,3.053 -2,6.542 -2.23,11.65 C 18.06,51.327 18,52.964 18,66 c 0,13.036 0.058,14.667 0.29,19.787 0.235,5.11 1.044,8.598 2.23,11.65 1.227,3.157 2.867,5.835 5.536,8.503 2.667,2.67 5.345,4.314 8.5,5.54 3.054,1.187 6.543,1.996 11.652,2.23 5.12,0.233 6.755,0.29 19.79,0.29 13.037,0 14.668,-0.057 19.788,-0.29 5.11,-0.234 8.602,-1.043 11.656,-2.23 3.156,-1.226 5.83,-2.87 8.497,-5.54 2.67,-2.668 4.31,-5.346 5.54,-8.502 1.18,-3.053 1.99,-6.542 2.23,-11.65 0.23,-5.12 0.29,-6.752 0.29,-19.788 0,-13.036 -0.06,-14.672 -0.29,-19.792 -0.24,-5.11 -1.05,-8.598 -2.23,-11.65 -1.23,-3.157 -2.87,-5.835 -5.54,-8.503 -2.67,-2.67 -5.34,-4.31 -8.5,-5.535 -3.06,-1.187 -6.55,-1.996 -11.66,-2.23 C 80.659,18.057 79.029,18 65.989,18 Z m -4.306,8.65 c 1.278,-0.002 2.704,0 4.306,0 12.816,0 14.335,0.046 19.396,0.276 4.68,0.214 7.22,0.996 8.912,1.653 2.24,0.87 3.837,1.91 5.516,3.59 1.68,1.68 2.72,3.28 3.592,5.52 0.657,1.69 1.44,4.23 1.653,8.91 0.23,5.06 0.28,6.58 0.28,19.39 0,12.81 -0.05,14.33 -0.28,19.39 -0.214,4.68 -0.996,7.22 -1.653,8.91 -0.87,2.24 -1.912,3.835 -3.592,5.514 -1.68,1.68 -3.275,2.72 -5.516,3.59 -1.69,0.66 -4.232,1.44 -8.912,1.654 -5.06,0.23 -6.58,0.28 -19.396,0.28 -12.817,0 -14.336,-0.05 -19.396,-0.28 -4.68,-0.216 -7.22,-0.998 -8.913,-1.655 -2.24,-0.87 -3.84,-1.91 -5.52,-3.59 -1.68,-1.68 -2.72,-3.276 -3.592,-5.517 -0.657,-1.69 -1.44,-4.23 -1.653,-8.91 -0.23,-5.06 -0.276,-6.58 -0.276,-19.398 0,-12.818 0.046,-14.33 0.276,-19.39 0.214,-4.68 0.996,-7.22 1.653,-8.912 0.87,-2.24 1.912,-3.84 3.592,-5.52 1.68,-1.68 3.28,-2.72 5.52,-3.592 1.692,-0.66 4.233,-1.44 8.913,-1.655 4.428,-0.2 6.144,-0.26 15.09,-0.27 z m 29.928,7.97 c -3.18,0 -5.76,2.577 -5.76,5.758 0,3.18 2.58,5.76 5.76,5.76 3.18,0 5.76,-2.58 5.76,-5.76 0,-3.18 -2.58,-5.76 -5.76,-5.76 z m -25.622,6.73 c -13.613,0 -24.65,11.037 -24.65,24.65 0,13.613 11.037,24.645 24.65,24.645 C 79.617,90.645 90.65,79.613 90.65,66 90.65,52.387 79.616,41.35 66.003,41.35 Z m 0,8.65 c 8.836,0 16,7.163 16,16 0,8.836 -7.164,16 -16,16 -8.837,0 -16,-7.164 -16,-16 0,-8.837 7.163,-16 16,-16 z"
         id="path624" /></g><g
       transform="matrix(0.14393383,0.01482053,-0.01482053,0.14393383,191.32905,157.10611)"
       id="g557"
       inkscape:path-effect="#path-effect646"><path
         clip-path="none"
         mask="none"
         d="m -1089.333,-687.239 v 36.888 h 51.262 c -2.251,11.863 -9.006,21.908 -19.137,28.662 l 30.913,23.986 c 18.011,-16.625 28.402,-41.044 28.402,-70.052 0,-6.754 -0.606,-13.249 -1.732,-19.483 z"
         fill="#4285f4"
         id="path549"
         inkscape:original-d="m -1089.333,-687.239 v 36.888 h 51.262 c -2.251,11.863 -9.006,21.908 -19.137,28.662 l 30.913,23.986 c 18.011,-16.625 28.402,-41.044 28.402,-70.052 0,-6.754 -0.606,-13.249 -1.732,-19.483 z" /><path
         clip-path="none"
         mask="none"
         d="m -1142.714,-651.791 -6.972,5.337 -24.679,19.223 v 0 c 15.673,31.086 47.796,52.561 85.03,52.561 25.717,0 47.278,-8.486 63.038,-23.033 l -30.913,-23.986 c -8.486,5.715 -19.31,9.179 -32.125,9.179 -24.765,0 -45.806,-16.712 -53.34,-39.226 z"
         fill="#34a853"
         id="path551"
         inkscape:original-d="m -1142.714,-651.791 -6.972,5.337 -24.679,19.223 v 0 c 15.673,31.086 47.796,52.561 85.03,52.561 25.717,0 47.278,-8.486 63.038,-23.033 l -30.913,-23.986 c -8.486,5.715 -19.31,9.179 -32.125,9.179 -24.765,0 -45.806,-16.712 -53.34,-39.226 z" /><path
         clip-path="none"
         mask="none"
         d="m -1174.365,-712.61 c -6.494,12.815 -10.217,27.276 -10.217,42.689 0,15.413 3.723,29.874 10.217,42.689 0,0.086 31.693,-24.592 31.693,-24.592 -1.905,-5.715 -3.031,-11.776 -3.031,-18.098 0,-6.322 1.126,-12.383 3.031,-18.098 z"
         fill="#fbbc05"
         id="path553"
         inkscape:original-d="m -1174.365,-712.61 c -6.494,12.815 -10.217,27.276 -10.217,42.689 0,15.413 3.723,29.874 10.217,42.689 0,0.086 31.693,-24.592 31.693,-24.592 -1.905,-5.715 -3.031,-11.776 -3.031,-18.098 0,-6.322 1.126,-12.383 3.031,-18.098 z" /><path
         d="m -1089.333,-727.244 c 14.028,0 26.497,4.849 36.455,14.201 l 27.276,-27.276 c -16.539,-15.413 -38.013,-24.852 -63.731,-24.852 -37.234,0 -69.359,21.388 -85.032,52.561 l 31.692,24.592 c 7.533,-22.514 28.575,-39.226 53.34,-39.226 z"
         fill="#ea4335"
         clip-path="none"
         mask="none"
         id="path555"
         inkscape:original-d="m -1089.333,-727.244 c 14.028,0 26.497,4.849 36.455,14.201 l 27.276,-27.276 c -16.539,-15.413 -38.013,-24.852 -63.731,-24.852 -37.234,0 -69.359,21.388 -85.032,52.561 l 31.692,24.592 c 7.533,-22.514 28.575,-39.226 53.34,-39.226 z" /></g><path
       class="cls-1"
       d="m 46.070516,24.280525 c -2.066437,-1.279985 -4.291711,-2.283634 -6.618977,-2.985312 -0.398625,0.540729 -0.768392,1.10215 -1.107755,1.681911 -2.484885,-0.700561 -5.060717,-1.024836 -7.641704,-0.962024 -0.185222,-0.645738 -0.404299,-1.281281 -0.656321,-1.903993 -2.430514,0.106166 -4.836848,0.528455 -7.158278,1.25621 C 17.718138,27.266 15.74534,33.404434 15.55573,39.67668 v 0 c 2.314601,2.20678 4.990462,4.000337 7.911265,5.302707 0.799532,-0.833552 1.527397,-1.733001 2.175864,-2.688799 -0.941048,-0.493126 -1.83686,-1.068138 -2.677059,-1.718377 0.260697,-0.143189 0.516805,-0.292287 0.764376,-0.437118 5.030763,3.187913 11.220804,3.967185 16.884731,2.12564 0.204913,0.215129 0.416076,0.423053 0.632182,0.612933 -0.977012,0.422347 -1.989242,0.758036 -3.025015,1.003196 0.390758,1.086149 0.873117,2.137125 1.441872,3.14158 3.15459,-0.533784 6.1936,-1.6072 8.983624,-3.173127 v 0 c 1.597881,-7.100311 0.505152,-13.565994 -2.577054,-19.56479 z M 27.037432,37.250053 c -1.645945,-0.20721 -2.817711,-1.872088 -2.586376,-3.709664 0.231336,-1.837586 1.733587,-3.179163 3.421535,-2.966665 1.687948,0.212498 2.847561,1.889181 2.587349,3.723131 -0.260207,1.833941 -1.74506,3.164374 -3.422508,2.953198 z m 11.088482,1.395943 c -1.648575,-0.207541 -2.815091,-1.871758 -2.583756,-3.709334 0.231336,-1.837586 1.733588,-3.179163 3.424165,-2.966334 1.690566,0.212828 2.839683,1.888189 2.579465,3.722139 -0.260207,1.83394 -1.742434,3.164704 -3.419874,2.953529 z"
       id="path300"
       style="stroke-width:0.264583"
       sodipodi:nodetypes="ccccccssccccccccsscssssssssss" /><g
       style="clip-rule:evenodd;fill-rule:evenodd;image-rendering:optimizeQuality;shape-rendering:geometricPrecision;text-rendering:geometricPrecision"
       id="g531"
       transform="matrix(0.02904768,0.00434677,-0.00434677,0.02904768,11.537497,-1.4981658)"><g
         id="Layer_x0020_1"
         inkscape:label="Layer 1"
         inkscape:groupmode="layer">
  <metadata
   id="CorelCorpID_0Corel-Layer" />
  <g
   id="_1421394342400"
   transform="translate(0.14003858,21.079274)">
   <g
   id="g511">
    <polygon
   fill="#343434"
   fill-rule="nonzero"
   points="392.07,882.29 784.13,650.54 392.07,0 383.5,29.11 383.5,873.74 "
   id="polygon499" />
    <polygon
   fill="#8c8c8c"
   fill-rule="nonzero"
   points="0,650.54 392.07,882.29 392.07,472.33 392.07,0 "
   id="polygon501" />
    <polygon
   fill="#3c3c3b"
   fill-rule="nonzero"
   points="392.07,1277.38 784.37,724.89 392.07,956.52 387.24,962.41 387.24,1263.28 "
   id="polygon503" />
    <polygon
   fill="#8c8c8c"
   fill-rule="nonzero"
   points="392.07,1277.38 392.07,956.52 0,724.89 "
   id="polygon505" />
    <polygon
   fill="#141414"
   fill-rule="nonzero"
   points="392.07,882.29 784.13,650.54 392.07,472.33 "
   id="polygon507" />
    <polygon
   fill="#393939"
   fill-rule="nonzero"
   points="0,650.54 392.07,882.29 392.07,472.33 "
   id="polygon509" />
   </g>
  </g>
 </g></g><g
       id="layer1-9"
       inkscape:label="Layer 1"
       transform="matrix(0.26458333,0,0,0.26458333,-54.434127,-52.252739)"><rect
         id="rect4076"
         style="fill-opacity:0"
         height="1053.2"
         width="1151.6"
         y="-131.61"
         x="-209.07001" /><path
         id="path3933"
         sodipodi:nodetypes="ccccccccc"
         style="fill:url(#linearGradient4146);stroke-width:0.319999"
         inkscape:connector-curvature="0"
         d="m 423.73718,231.49616 c -35.87366,3.61625 -113.28571,1.32894 -113.28571,1.32894 20.30293,3.29858 29.89436,6.90893 26.71106,15.86394 -52.73883,14.04261 -159.90607,81.68138 -124.36831,142.8689 15.34973,27.51205 0.71129,-23.99479 21.91573,8.22141 -31.09237,-54.48361 28.48422,-105.96096 119.10551,-134.90341 8.07382,0.78588 13.84371,9.24308 2.69532,32.07181 0,0 28.41911,-24.27127 67.2264,-65.45159 z"
         inkscape:export-filename="path3933.png"
         inkscape:export-xdpi="412.86563"
         inkscape:export-ydpi="412.86563" /></g></g></svg>
